# xmcd CD database file
#
# Track frame offsets:
#	150
#	11145
#	21512
#	30866
#	40464
#	56788
#	69022
#	79330
#	95415
#	107517
#
# Disc length: 1556 seconds
#
# Revision: 1
# Processed by: cddbd v1.5.2PL0 Copyright (c) Steve Scherf et al.
# Submitted via: cdripper 1,0,33,916
#
DISCID=7806120a
DTITLE=Various Artist - Truckin' Country Classics: Country Hits On The Road
DYEAR=2008
DGENRE=Country
TTITLE0=King Of The Road - Roger Miller
TTITLE1=Six Days On The Road - Dave Dudley
TTITLE2=Down The Street To 301 - Johnny Cash
TTITLE3=Truck Drivin' Son Of A Gun - Ferlin Husky
TTITLE4=Ramblin' Fever - Merle Haggard
TTITLE5=Lost Highway - Hank Williams
TTITLE6=Live Fast, Love Hard, Die Young - Faron Young
TTITLE7=Truck Driver's Blues - Ferlin Husky
TTITLE8=Truck Drivin' Man - Red Steagall
TTITLE9=Keep On Truckin' - Dave Dudley
EXTD=YEAR: 2008
EXTT0=
EXTT1=
EXTT2=
EXTT3=
EXTT4=
EXTT5=
EXTT6=
EXTT7=
EXTT8=
EXTT9=
PLAYORDER=
